<?xml version="1.0" encoding="UTF-8"?>
<svg id="Calque_9" data-name="Calque 9" xmlns="http://www.w3.org/2000/svg" viewBox="0 0 589.28 764.44">
  <defs>
    <style>
      .cls-1 {
        fill: none;
        stroke: #000;
        stroke-miterlimit: 10;
        stroke-width: 40.18px;
      }
    </style>
  </defs>
  <g class="isolate">
    <path class="cls-1" d="M569.19,321.3c0,151.63-122.91,274.55-274.55,274.55S20.09,472.93,20.09,321.3c0-75.81,30.73-144.45,80.41-194.13,16.57-16.56,35.23-31.02,55.57-42.93,20.34,54.66,42.35-83.14,65.59-27.67,23.24-55.59,47.71,110.52,72.99-9.81,25.28,22.41,49.75-77.56,72.99,9.81,23.24-46.8,45.25-11.96,65.59,27.67,20.34,31.26,39,26.37,55.57,42.93,49.67,49.68,80.41,118.32,80.41,194.13Z"/>
    <path class="cls-1" d="M383.52,320.86c0,49.33-40,89.33-89.33,89.33s-89.34-40-89.34-89.33,40-89.34,89.34-89.34,89.33,39.99,89.33,89.34Z"/>
    <polygon class="cls-1" points="293.31 744.35 135.94 744.35 214.62 550.09 293.31 355.84 372 550.09 450.7 744.35 293.31 744.35"/>
  </g>
</svg>